<svg xmlns="http://www.w3.org/2000/svg" xmlns:xlink="http://www.w3.org/1999/xlink" width="198" height="53" viewBox="0 0 198 53"><defs><linearGradient id="a" x1="0.045" y1="-0.487" x2="0.937" y2="2.485" gradientUnits="objectBoundingBox"><stop offset="0" stop-color="#4192ff"/><stop offset="1" stop-color="#f4aae5"/></linearGradient></defs><g transform="translate(-873 -689)"><g transform="translate(873 689)"><rect width="198" height="53" rx="10" fill="url(#a)"/><text transform="translate(18 32)" fill="#fff" font-size="15" font-family="Manrope-Bold, Manrope" font-weight="700"><tspan x="0" y="0">Download Resume</tspan></text><path d="M28.674,60.007h3.168c2.293,0,4.169-.884,4.169-3.152s-2.21-3.063-4-3.152a6,6,0,0,0-6-5.7,5.512,5.512,0,0,0-5.336,3.8C18.168,52.04,16,53.3,16,55.9s2.251,4.1,5,4.1h2.335m0,2.672,2.668,2.664,2.668-2.664m-2.668-7.342v9.34" transform="translate(148.521 -29.215)" fill="none" stroke="#fff" stroke-linecap="round" stroke-linejoin="round" stroke-width="2"/></g></g></svg>